# xmcd CD database file
#
# Track frame offsets:
#	150
#	17550
#	36750
#	56925
#	71850
#	91505
#	110475
#	124475
#	139650
#	155625
#	169962
#	188175
#	208875
#
# Disc length: 3056 seconds
#
# Revision: 1
# Processed by: cddbd v1.5.2PL0 Copyright (c) Steve Scherf et al.
# Submitted via: CDex 1.70beta2
#
DISCID=c10bee0d
DTITLE=Bonnie Tyler - Here am I
DYEAR=1995
DGENRE=Pop
TTITLE0=Here am I
TTITLE1=Let the show begin
TTITLE2=A whiter shade of Pale
TTITLE3=Sitting on the edge of the ocean
TTITLE4=I believe in your sweet love
TTITLE5=Yesterday's dream
TTITLE6=(You make me feel like a) Natural woman
TTITLE7=I'm a fool
TTITLE8=The world starts tonight
TTITLE9=Goodbye to the island
TTITLE10=Blame me
TTITLE11=Wild love
TTITLE12=Baby goodnight
EXTD=YEAR: 1995
EXTT0=
EXTT1=
EXTT2=
EXTT3=
EXTT4=
EXTT5=
EXTT6=
EXTT7=
EXTT8=
EXTT9=
EXTT10=
EXTT11=
EXTT12=
PLAYORDER=
